<?xml version="1.0" encoding="utf-8"?>
<!-- Generator: Adobe Illustrator 18.1.1, SVG Export Plug-In . SVG Version: 6.00 Build 0)  -->
<svg version="1.1" id="Layer_1" xmlns="http://www.w3.org/2000/svg" xmlns:xlink="http://www.w3.org/1999/xlink" x="0px" y="0px"
	 viewBox="0 0 465 290" enable-background="new 0 0 465 290" xml:space="preserve">
<g id="XMLID_2479_">
	
		<radialGradient id="SVGID_1_" cx="240.566" cy="285.4669" r="455.9682" gradientTransform="matrix(1 0 0 0.9638 -11.4862 12.4057)" gradientUnits="userSpaceOnUse">
		<stop  offset="0" style="stop-color:#F05B46"/>
		<stop  offset="1" style="stop-color:#E14938"/>
	</radialGradient>
	<rect x="0.6" fill="url(#SVGID_1_)" width="465" height="290"/>
	<text id="XMLID_2328_" transform="matrix(1 0 0 1 169.8027 231.578)" fill="#FFFFFF" font-family="'Helvetica'" font-size="9.33">SUBSCRIBER CHURN RATE</text>
	<g id="XMLID_2327_">
		<text transform="matrix(1 0 0 1 202.5254 135.9482)" fill="#FFFFFF" font-family="'Helvetica'" font-size="29.1196">32%</text>
	</g>
	<g id="XMLID_2322_">
		<path id="XMLID_2324_" opacity="0.2" fill="#FFFFFF" enable-background="new    " d="M231.6,50.6c-41.1,0-74.5,33.3-74.5,74.5
			s33.3,74.5,74.5,74.5s74.5-33.3,74.5-74.5C306.1,83.9,272.8,50.6,231.6,50.6z M231.6,181.8c-31.4,0-56.8-25.4-56.8-56.8
			s25.4-56.8,56.8-56.8s56.8,25.4,56.8,56.8S263,181.8,231.6,181.8z"/>
		<g id="XMLID_2323_">
			<g>
				<path fill="#FFFFFF" d="M288.5,125.1c0,13.2-4.6,25.4-12.1,35.1l12.5,12.5c10.7-12.9,17.2-29.5,17.2-47.6
					c0-41.1-33.3-74.3-74.2-74.5v17.6C263.2,68.4,288.5,93.7,288.5,125.1z"/>
			</g>
		</g>
	</g>
</g>
</svg>
