<?xml version="1.0" encoding="UTF-8" standalone="no"?>
<svg width="571px" height="290px" viewBox="0 0 571 290" version="1.1" xmlns="http://www.w3.org/2000/svg" xmlns:xlink="http://www.w3.org/1999/xlink">
    <defs></defs>
    <g stroke="none" stroke-width="1" fill="none" fill-rule="evenodd">
        <g transform="translate(0.900000, 0.000000)">
            <rect fill="#FC5843" x="0" y="0" width="570" height="290"></rect>
            <text font-family="Helvetica" font-size="21" font-weight="260" fill="#FFFFFF">
                <tspan x="305" y="130">%</tspan>
            </text>
            <text font-family="Helvetica" font-size="12" font-weight="normal" letter-spacing="0.200000003" fill="#FFFFFF">
                <tspan x="208.691211" y="250">MONTHLY GROWTH RAT</tspan>
                <tspan x="354.304883" y="250">E</tspan>
            </text>
            <text font-family="Helvetica" font-size="36" font-weight="260" fill="#FFFFFF">
                <tspan x="262" y="139">32</tspan>
            </text>
            <path d="M285.3,29 C232.1,29 189,72.1 189,125.3 C189,178.5 232.1,221.6 285.3,221.6 C338.5,221.6 381.6,178.5 381.6,125.3 C381.6,72.1 338.5,29 285.3,29 L285.3,29 Z M285.3,198.7 C244.7,198.7 211.8,165.8 211.8,125.2 C211.8,84.6 244.7,51.7 285.3,51.7 C325.9,51.7 358.8,84.6 358.8,125.2 C358.8,165.8 325.9,198.7 285.3,198.7 L285.3,198.7 Z" opacity="0.2" fill="#FFFFFF"></path>
            <path d="M358.2,125.3 C358.2,142.4 352.3,158.2 342.5,170.7 L358.7,186.9 C372.6,170.2 381,148.7 381,125.3 C381,72.2 338,29.2 285,29 L285,51.8 C325.4,52 358.2,84.8 358.2,125.3 L358.2,125.3 Z" fill="#FFFFFF"></path>
            <circle fill="#FFFFFF" cx="268" cy="270" r="4"></circle>
            <circle stroke="#FC7968" cx="284" cy="270" r="4"></circle>
            <circle stroke="#FC7968" cx="300" cy="270" r="4"></circle>
        </g>
    </g>
</svg>