<?xml version="1.0" encoding="UTF-8" standalone="no"?>
<svg width="520px" height="520px" viewBox="0 0 520 520" version="1.1" xmlns="http://www.w3.org/2000/svg" xmlns:xlink="http://www.w3.org/1999/xlink">
    <defs></defs>
    <g stroke="none" stroke-width="1" fill="none" fill-rule="evenodd">
        <g>
            <path d="M449.695944,506.026871 L70.2035957,506.026871 C40.8381164,506.026871 15.9904031,481.171892 15.9904031,451.797825 L15.9904031,72.1944978 C15.9904031,42.8204308 40.8381164,17.9654511 70.2035957,17.9654511 L449.695944,17.9654511 C479.061424,17.9654511 503.909137,42.8204308 503.909137,72.1944978 L503.909137,451.797825 C506.16802,481.171892 481.320307,506.026871 449.695944,506.026871 L449.695944,506.026871 Z" fill="#FFFFFF"></path>
            <rect fill="#FA5A43" x="106.345215" y="243.859611" width="74.5780093" height="169.495476"></rect>
            <path d="M185.443104,415.615026 L104.085276,415.615026 L104.085276,241.599671 L185.443104,241.599671 L185.443104,415.615026 L185.443104,415.615026 Z M108.605155,413.355086 L178.663285,413.355086 L178.663285,248.37949 L108.605155,248.37949 L108.605155,413.355086 L108.605155,413.355086 Z" fill="#FA5A43"></path>
            <rect fill="#FA5A43" x="221.602139" y="187.361119" width="74.5780093" height="225.993968"></rect>
            <path d="M298.440088,415.615026 L217.082259,415.615026 L217.082259,185.101179 L298.440088,185.101179 L298.440088,415.615026 L298.440088,415.615026 Z M223.862078,411.095147 L293.920208,411.095147 L293.920208,189.621058 L223.862078,189.621058 L223.862078,411.095147 L223.862078,411.095147 Z" fill="#FA5A43"></path>
            <rect fill="#FA5A43" x="336.859062" y="124.082808" width="74.5780093" height="287.012339"></rect>
            <path d="M413.697011,415.615026 L332.339183,415.615026 L332.339183,119.562928 L413.697011,119.562928 L413.697011,415.615026 L413.697011,415.615026 Z M339.119002,406.575267 L409.177132,406.575267 L409.177132,128.602687 L339.119002,128.602687 L339.119002,406.575267 L339.119002,406.575267 Z" fill="#FA5A43"></path>
        </g>
    </g>
</svg>