<?xml version="1.0" encoding="utf-8"?>
<!-- Generator: Adobe Illustrator 18.1.1, SVG Export Plug-In . SVG Version: 6.00 Build 0)  -->
<svg version="1.1" id="Layer_1" xmlns="http://www.w3.org/2000/svg" xmlns:xlink="http://www.w3.org/1999/xlink" x="0px" y="0px"
	 viewBox="0 0 465 290" enable-background="new 0 0 465 290" xml:space="preserve">
<g id="XMLID_2479_">
	
		<radialGradient id="SVGID_1_" cx="233.1" cy="145" r="193.754" gradientTransform="matrix(1 0 0 -1 0 290)" gradientUnits="userSpaceOnUse">
		<stop  offset="0" style="stop-color:#FFFFFF"/>
		<stop  offset="1" style="stop-color:#EDEDED"/>
	</radialGradient>
	<rect x="0.6" fill="url(#SVGID_1_)" width="465" height="290"/>
</g>
<g id="XMLID_2711_">
	<text transform="matrix(1 0 0 1 71.0714 219.0461)" fill="#666666" font-family="'Helvetica'" font-size="10.0406">MONTHLY</text>
	<text transform="matrix(1 0 0 1 58.0142 231.0597)" fill="#666666" font-family="'Helvetica'" font-size="10.0406">GROWTH RATE</text>
	<text transform="matrix(1 0 0 1 198.3722 219.0461)" fill="#666666" font-family="'Helvetica'" font-size="10.0406">YoY GROWTH</text>
	<text transform="matrix(1 0 0 1 218.7422 231.0597)" fill="#666666" font-family="'Helvetica'" font-size="10.0406">RATE</text>
	<text transform="matrix(1 0 0 1 333.6954 219.0461)" fill="#666666" font-family="'Helvetica'" font-size="10.0406">USER CHURN</text>
	<text transform="matrix(1 0 0 1 353.752 231.0597)" fill="#666666" font-family="'Helvetica'" font-size="10.0406">RATE</text>
	<path id="XMLID_2705_" fill="#FFFFFF" d="M97.1,195.1c-28.5,0-51.8-23.2-51.8-51.8c0-28.5,23.2-51.8,51.8-51.8s51.8,23.2,51.8,51.8
		S125.7,195.1,97.1,195.1z M97.1,101.5c-23.1,0-41.8,18.8-41.8,41.8c0,23.1,18.8,41.8,41.8,41.8s41.8-18.8,41.8-41.8
		C138.9,120.2,120.1,101.5,97.1,101.5z"/>
	<path id="XMLID_2702_" fill="#FFFFFF" d="M232.1,195.1c-28.5,0-51.8-23.2-51.8-51.8c0-28.5,23.2-51.8,51.8-51.8
		c28.5,0,51.8,23.2,51.8,51.8S260.6,195.1,232.1,195.1z M232.1,101.5c-23.1,0-41.8,18.8-41.8,41.8c0,23.1,18.8,41.8,41.8,41.8
		c23.1,0,41.8-18.8,41.8-41.8C273.9,120.2,255.2,101.5,232.1,101.5z"/>
	<path id="XMLID_2649_" fill="#FFFFFF" d="M367.2,195.1c-28.5,0-51.8-23.2-51.8-51.8c0-28.5,23.2-51.8,51.8-51.8
		s51.8,23.2,51.8,51.8S395.7,195.1,367.2,195.1z M367.2,101.5c-23.1,0-41.8,18.8-41.8,41.8c0,23.1,18.8,41.8,41.8,41.8
		s41.8-18.8,41.8-41.8C409,120.2,390.3,101.5,367.2,101.5z"/>
	<path id="XMLID_2647_" fill="#EC1460" d="M138.9,143.3c0,11.8-4.9,22.5-12.8,30.1l7,7c9.7-9.4,15.8-22.6,15.8-37.2
		c0-28.5-23.2-51.8-51.8-51.8c-0.5,0-0.9,0-1.5,0v9.9c0.5,0,0.9,0,1.5,0C120.1,101.5,138.9,120.2,138.9,143.3z"/>
	<path id="XMLID_2646_" fill="#32D0F8" d="M232.1,91.5C232.1,91.5,232,91.5,232.1,91.5l-0.1,10h0.1c23.1,0,41.8,18.8,41.8,41.8
		c0,23.1-18.8,41.8-41.8,41.8c-13.2,0-25-6.2-32.6-15.7l-7.1,7.1c9.5,11.3,23.7,18.6,39.7,18.6c28.5,0,51.8-23.2,51.8-51.8
		C283.9,114.8,260.6,91.5,232.1,91.5z"/>
	<path id="XMLID_2645_" fill="#FFC200" d="M367.2,91.5c-0.2,0-0.3,0-0.5,0v9.9c0.2,0,0.3,0,0.5,0c23.1,0,41.8,18.8,41.8,41.8
		c0,23.1-18.8,41.8-41.8,41.8c-23.1,0-41.8-18.8-41.8-41.8c0-6,1.3-11.6,3.6-16.7c-3-1.1-6.2-2.3-9.4-3.3c-2.6,6.2-4.1,13-4.1,20.1
		c0,28.5,23.2,51.8,51.8,51.8c28.5,0,51.8-23.2,51.8-51.8C419,114.8,395.7,91.5,367.2,91.5z"/>
	<text transform="matrix(1 0 0 1 78.7349 152.69)" fill="#808080" font-family="'Helvetica'" font-size="26.7806">32</text>
	<text transform="matrix(1 0 0 1 108.5225 143.7716)" fill="#808080" font-family="'Helvetica'" font-size="15.6131">%</text>
	<text transform="matrix(1 0 0 1 214.4737 152.69)" fill="#808080" font-family="'Helvetica'" font-size="26.7806">65</text>
	<text transform="matrix(1 0 0 1 244.2618 143.7716)" fill="#808080" font-family="'Helvetica'" font-size="15.6131">%</text>
	<text transform="matrix(1 0 0 1 350.2119 152.69)" fill="#808080" font-family="'Helvetica'" font-size="26.7806">79</text>
	<text transform="matrix(1 0 0 1 380.0001 143.7716)" fill="#808080" font-family="'Helvetica'" font-size="15.6131">%</text>
</g>
</svg>
