<?xml version="1.0" encoding="utf-8"?>
<!-- Generator: Adobe Illustrator 18.1.1, SVG Export Plug-In . SVG Version: 6.00 Build 0)  -->
<svg version="1.1" id="Layer_1" xmlns="http://www.w3.org/2000/svg" xmlns:xlink="http://www.w3.org/1999/xlink" x="0px" y="0px"
	 viewBox="439 258.3 401.8 282.4" enable-background="new 439 258.3 401.8 282.4" xml:space="preserve">
<g id="XMLID_2439_">
	<path id="XMLID_2854_" fill="#FFFFFF" d="M835.3,540.7H444.7c-2.8,0-5-2.2-5-5V263.6c0-2.8,2.2-5,5-5h390.6c2.8,0,5,2.2,5,5v272.1
		C840.3,538.5,838.1,540.7,835.3,540.7z"/>
	
		<radialGradient id="XMLID_2_" cx="644.408" cy="534.9185" r="353.3206" gradientTransform="matrix(1 0 0 -1 0 800)" gradientUnits="userSpaceOnUse">
		<stop  offset="0" style="stop-color:#FFFFFF"/>
		<stop  offset="1" style="stop-color:#F2F2F2"/>
	</radialGradient>
	<path id="XMLID_2835_" fill="url(#XMLID_2_)" stroke="#E6E6E6" stroke-miterlimit="10" d="M840.3,495V262.8c0-2.2-1.8-4-4-4H443.7
		c-2.2,0-4,1.8-4,4V495H840.3z"/>
	<g id="XMLID_2832_" opacity="5.000000e-02">
		<line id="XMLID_2834_" fill="none" stroke="#FFFFFF" stroke-miterlimit="10" x1="439" y1="300.5" x2="840" y2="300.5"/>
		<line id="XMLID_2833_" fill="none" stroke="#000000" stroke-miterlimit="10" x1="439" y1="301.5" x2="840" y2="301.5"/>
	</g>
	<g id="XMLID_2825_">
		<text transform="matrix(1 0 0 1 486.9805 284.9584)" fill="#4D4D4D" font-family="'Helvetica'" font-size="12">ANALYTICS</text>
	</g>
	<g id="XMLID_2822_" opacity="5.000000e-02">
		<line id="XMLID_2824_" fill="none" stroke="#FFFFFF" stroke-miterlimit="10" x1="789.5" y1="261" x2="789.5" y2="300"/>
		<line id="XMLID_2823_" fill="none" stroke="#000000" stroke-miterlimit="10" x1="788.5" y1="261" x2="788.5" y2="301"/>
	</g>
	<g id="XMLID_2816_" opacity="0.5">
		<path id="XMLID_2817_" fill="#5F7C8B" stroke="#5F7C8B" stroke-miterlimit="10" d="M815.8,288.6h-1.9l-0.9-2.3
			c-0.4-0.1-0.9-0.3-1.3-0.6l-2.2,0.9l-1.4-1.4l0.9-2.2c-0.2-0.4-0.5-0.8-0.6-1.3l-2.3-0.9v-1.9l2.3-0.9c0.1-0.4,0.3-0.9,0.6-1.3
			l-0.9-2.2l1.4-1.4l2.2,0.9c0.4-0.2,0.8-0.3,1.3-0.4l0.9-2.2h1.9l0.9,2.2c0.4,0.1,0.9,0.3,1.3,0.5l2.2-0.9l1.4,1.4l-0.9,2.2
			c0.2,0.4,0.3,0.8,0.4,1.3l2.2,0.9v1.9l-2.2,0.9c-0.1,0.4-0.3,0.9-0.5,1.3l0.9,2.2l-1.4,1.4l-2.2-0.9c-0.4,0.2-0.8,0.5-1.3,0.6
			L815.8,288.6z M814.1,288.3h1.5l0.9-2.3l0.1-0.1c0.5-0.1,0.9-0.3,1.3-0.6h0.1l2.2,0.9l1.1-1.1l-0.9-2.2v-0.1
			c0.2-0.4,0.4-0.9,0.6-1.3l-0.1-0.1l2.1-0.9V279l-2.1-0.9V278c-0.1-0.5-0.3-0.9-0.5-1.3v-0.1l0.9-2.2l-1.1-1.1l-2.2,0.9h-0.1
			c-0.4-0.2-0.9-0.4-1.3-0.6l-0.1,0.1l-0.9-2.1h-1.5l-0.9,2.1h-0.1c-0.5,0.1-0.9,0.3-1.3,0.5h-0.1l-2.2-0.9l-1.1,1.1l0.9,2.2v0.1
			c-0.2,0.4-0.4,0.9-0.6,1.3l-0.1,0.1l-2.3,0.9v1.5l2.3,0.9l0.1,0.1c0.1,0.5,0.3,0.9,0.6,1.3v0.1l-0.9,2.2l1.1,1.1l2.2-0.9h0.1
			c0.4,0.2,0.9,0.4,1.3,0.6l0.1,0.1L814.1,288.3z M814.9,282.6c-0.8,0-1.6-0.4-2.1-1s-0.8-1.5-0.6-2.3c0.2-1.1,1.1-2,2.2-2.2
			c1-0.2,2,0.2,2.7,0.9c0.5,0.6,0.8,1.5,0.6,2.3c-0.2,1.1-1.1,2-2.2,2.2C815.3,282.6,815.1,282.6,814.9,282.6z M814.9,277.4
			c-0.2,0-0.3,0-0.5,0c-1,0.2-1.7,0.9-1.9,1.9c-0.1,0.7,0.1,1.5,0.5,2c0.6,0.7,1.5,1,2.4,0.8c1-0.2,1.7-0.9,1.9-1.9
			c0.1-0.7-0.1-1.5-0.5-2C816.3,277.7,815.6,277.4,814.9,277.4z"/>
	</g>
	<g id="XMLID_2881_">
		<path id="XMLID_2880_" fill="#253B80" d="M457.1,290.7l0.4-2.4h-0.8h-4l2.8-17.7c0-0.1,0-0.1,0.1-0.1l0.1-0.1h6.8
			c2.2,0,3.8,0.5,4.6,1.4c0.4,0.4,0.6,0.9,0.7,1.4s0.1,1.1,0,1.9v0.1v0.5l0.4,0.2c0.3,0.2,0.6,0.4,0.8,0.6c0.3,0.4,0.5,0.8,0.6,1.4
			s0.1,1.3-0.1,2c-0.2,0.9-0.5,1.7-0.8,2.3c-0.3,0.6-0.8,1.1-1.3,1.4c-0.5,0.4-1.1,0.6-1.8,0.8c-0.7,0.2-1.4,0.3-2.2,0.3h-0.5
			c-0.4,0-0.7,0.1-1,0.4c-0.3,0.2-0.5,0.6-0.5,1v0.2l-0.7,4.2v0.2v0.1c0,0,0,0-0.1,0L457.1,290.7L457.1,290.7z"/>
		<path id="XMLID_2879_" fill="#179BD7" d="M468.5,275.2L468.5,275.2L468.5,275.2c0,0.1,0,0.3-0.1,0.4c-0.9,4.6-3.9,6.2-7.8,6.2h-2
			c-0.5,0-0.9,0.3-1,0.8l0,0l0,0l-1,6.4l-0.3,1.8c0,0.3,0.2,0.6,0.5,0.6h3.5c0.4,0,0.8-0.3,0.8-0.7v-0.2l0.7-4.2v-0.2
			c0.1-0.4,0.4-0.7,0.8-0.7h0.5c3.4,0,6.1-1.4,6.9-5.4c0.3-1.7,0.2-3.1-0.7-4.1C469.2,275.7,468.8,275.4,468.5,275.2z"/>
		<path id="XMLID_2878_" fill="#222D65" d="M467.5,274.9c-0.1,0-0.3-0.1-0.4-0.1s-0.3-0.1-0.4-0.1c-0.5-0.1-1.1-0.1-1.7-0.1h-5.3
			c-0.1,0-0.3,0-0.4,0.1c-0.2,0.1-0.4,0.3-0.5,0.6l-1.1,7.1v0.2c0.1-0.5,0.5-0.8,1-0.8h2c3.9,0,6.9-1.6,7.8-6.2c0-0.1,0-0.3,0.1-0.4
			c-0.2-0.1-0.5-0.2-0.7-0.3C467.7,274.9,467.6,274.9,467.5,274.9z"/>
		<path id="XMLID_2877_" fill="#253B80" d="M458.8,275.2c0-0.3,0.2-0.5,0.5-0.6c0.1-0.1,0.2-0.1,0.4-0.1h5.3c0.6,0,1.2,0,1.7,0.1
			c0.2,0,0.3,0.1,0.4,0.1s0.3,0.1,0.4,0.1s0.1,0,0.2,0.1c0.3,0.1,0.5,0.2,0.7,0.3c0.3-1.7,0-2.8-0.9-3.9c-1-1.1-2.8-1.6-5.2-1.6
			h-6.8c-0.5,0-0.9,0.3-1,0.8l-2.8,17.8c-0.1,0.4,0.2,0.7,0.6,0.7h4.2l1-6.6L458.8,275.2z"/>
	</g>
	<g id="XMLID_2711_">
		<text transform="matrix(1 0 0 1 487.2305 454.9242)" fill="#666666" font-family="'Helvetica'" font-size="9.6117">MONTHLY</text>
		<text transform="matrix(1 0 0 1 474.7305 466.4242)" fill="#666666" font-family="'Helvetica'" font-size="9.6117">GROWTH RATE</text>
		<text transform="matrix(1 0 0 1 609.0928 454.9242)" fill="#666666" font-family="'Helvetica'" font-size="9.6117">YoY GROWTH</text>
		<text transform="matrix(1 0 0 1 628.5928 466.4242)" fill="#666666" font-family="'Helvetica'" font-size="9.6117">RATE</text>
		<text transform="matrix(1 0 0 1 738.6357 454.9242)" fill="#666666" font-family="'Helvetica'" font-size="9.6117">USER CHURN</text>
		<text transform="matrix(1 0 0 1 757.8357 466.4242)" fill="#666666" font-family="'Helvetica'" font-size="9.6117">RATE</text>
		<path id="XMLID_2705_" fill="#FFFFFF" d="M512.1,432c-27.3,0-49.6-22.2-49.6-49.6c0-27.3,22.2-49.6,49.6-49.6
			c27.4,0,49.6,22.2,49.6,49.6C561.7,409.8,539.5,432,512.1,432z M512.1,342.4c-22.1,0-40,18-40,40c0,22.1,18,40,40,40s40-18,40-40
			C552.2,360.3,534.2,342.4,512.1,342.4z"/>
		<path id="XMLID_2702_" fill="#FFFFFF" d="M641.4,432c-27.3,0-49.6-22.2-49.6-49.6c0-27.3,22.2-49.6,49.6-49.6
			c27.3,0,49.6,22.2,49.6,49.6S668.7,432,641.4,432z M641.4,342.4c-22.1,0-40,18-40,40c0,22.1,18,40,40,40c22.1,0,40-18,40-40
			C681.4,360.3,663.5,342.4,641.4,342.4z"/>
		<path id="XMLID_2649_" fill="#FFFFFF" d="M770.7,432c-27.3,0-49.6-22.2-49.6-49.6c0-27.3,22.2-49.6,49.6-49.6s49.6,22.2,49.6,49.6
			S798,432,770.7,432z M770.7,342.4c-22.1,0-40,18-40,40c0,22.1,18,40,40,40s40-18,40-40C810.7,360.3,792.8,342.4,770.7,342.4z"/>
		<path id="XMLID_2647_" fill="#EC1460" d="M552.2,382.4c0,11.3-4.7,21.5-12.3,28.8l6.7,6.7c9.3-9,15.1-21.6,15.1-35.6
			c0-27.3-22.2-49.6-49.6-49.6c-0.5,0-0.9,0-1.4,0v9.5c0.5,0,0.9,0,1.4,0C534.2,342.4,552.2,360.3,552.2,382.4z"/>
		<path id="XMLID_2646_" fill="#32D0F8" d="M641.4,332.8C641.4,332.8,641.3,332.8,641.4,332.8l-0.1,9.6h0.1c22.1,0,40,18,40,40
			c0,22.1-18,40-40,40c-12.6,0-23.9-5.9-31.2-15l-6.8,6.8c9.1,10.8,22.7,17.8,38,17.8c27.3,0,49.6-22.2,49.6-49.6
			C691,355.1,668.7,332.8,641.4,332.8z"/>
		<path id="XMLID_2645_" fill="#FFC200" d="M770.7,332.8c-0.2,0-0.3,0-0.5,0v9.5c0.2,0,0.3,0,0.5,0c22.1,0,40,18,40,40
			c0,22.1-18,40-40,40c-22.1,0-40-18-40-40c0-5.7,1.2-11.1,3.4-16c-2.9-1.1-5.9-2.2-9-3.2c-2.5,5.9-3.9,12.4-3.9,19.2
			c0,27.3,22.2,49.6,49.6,49.6c27.3,0,49.6-22.2,49.6-49.6C820.3,355.1,798,332.8,770.7,332.8z"/>
		<text transform="matrix(1 0 0 1 494.5664 391.4027)" fill="#808080" font-family="'Helvetica'" font-size="25.6366">32</text>
		<text transform="matrix(1 0 0 1 523.0821 382.8654)" fill="#808080" font-family="'Helvetica'" font-size="14.9461">%</text>
		<text transform="matrix(1 0 0 1 624.5068 391.4027)" fill="#808080" font-family="'Helvetica'" font-size="25.6366">65</text>
		<text transform="matrix(1 0 0 1 653.0225 382.8654)" fill="#808080" font-family="'Helvetica'" font-size="14.9461">%</text>
		<text transform="matrix(1 0 0 1 754.4463 391.4027)" fill="#808080" font-family="'Helvetica'" font-size="25.6366">79</text>
		<text transform="matrix(1 0 0 1 782.9622 382.8654)" fill="#808080" font-family="'Helvetica'" font-size="14.9461">%</text>
	</g>
	
		<radialGradient id="XMLID_3_" cx="640" cy="400.3117" r="173.2203" gradientTransform="matrix(1 0 0 -1 0 800)" gradientUnits="userSpaceOnUse">
		<stop  offset="0" style="stop-color:#29ABE2"/>
		<stop  offset="1" style="stop-color:#0071BC"/>
	</radialGradient>
	<path id="XMLID_2752_" fill="url(#XMLID_3_)" d="M439.7,495.4v41.3c0,2.2,1.8,4,4,4h392.6c2.2,0,4-1.8,4-4v-41.3L439.7,495.4
		L439.7,495.4z"/>
</g>
<g id="XMLID_2482_">
	<text transform="matrix(1 0 0 1 497.3975 522.4301)" fill="#FFFFFF" font-family="'Helvetica'" font-size="10">VIEW ALL ANALYTICS</text>
</g>
<g id="XMLID_2484_">
	<path id="XMLID_2737_" fill="#FFFFFF" d="M479.8,527H460v-17.8c0-0.2,0.1-0.3,0.3-0.3s0.3,0.1,0.3,0.3v17.1h19.1
		c0.2,0,0.3,0.1,0.3,0.3C480.1,526.9,480,527,479.8,527z"/>
	<path id="XMLID_2716_" fill="#FFFFFF" d="M465,525.7h-2.7c-0.2,0-0.3-0.1-0.3-0.3v-2c0-0.2,0.1-0.3,0.3-0.3h2.7
		c0.2,0,0.3,0.1,0.3,0.3v2C465.4,525.6,465.2,525.7,465,525.7z M462.7,525h2v-1.3h-2V525z"/>
	<path id="XMLID_2603_" fill="#FFFFFF" d="M469.7,525.7H467c-0.2,0-0.3-0.1-0.3-0.3v-9.7c0-0.2,0.1-0.3,0.3-0.3h2.7
		c0.2,0,0.3,0.1,0.3,0.3v9.7C470.1,525.6,469.9,525.7,469.7,525.7z M467.4,525h2v-9h-2V525z"/>
	<path id="XMLID_2497_" fill="#FFFFFF" d="M474.4,525.7h-2.7c-0.2,0-0.3-0.1-0.3-0.3v-7c0-0.2,0.1-0.3,0.3-0.3h2.7
		c0.2,0,0.3,0.1,0.3,0.3v7C474.8,525.6,474.6,525.7,474.4,525.7z M472.1,525h2v-6.4h-2V525z"/>
	<path id="XMLID_2491_" fill="#FFFFFF" d="M479.1,525.7h-2.7c-0.2,0-0.3-0.1-0.3-0.3V509c0-0.2,0.1-0.3,0.3-0.3h2.7
		c0.2,0,0.3,0.1,0.3,0.3v16.4C479.5,525.6,479.3,525.7,479.1,525.7z M476.8,525h2v-15.7h-2V525z"/>
</g>
<g id="XMLID_2760_">
	<text transform="matrix(1 0 0 1 704.0566 522.4301)" fill="#FFFFFF" font-family="'Helvetica'" font-size="10">VIEW ALL REPORTS</text>
</g>
<g id="XMLID_2741_" opacity="0.2">
	<line id="XMLID_2743_" fill="none" stroke="#FFFFFF" stroke-miterlimit="10" x1="637.5" y1="497" x2="637.5" y2="538"/>
	<line id="XMLID_2742_" fill="none" stroke="#000000" stroke-miterlimit="10" x1="636.5" y1="497" x2="636.5" y2="538"/>
</g>
<g id="XMLID_2154_">
	<path id="XMLID_2509_" fill="#FFFFFF" d="M673.9,518.5v1.9c0,0.2,0.2,0.4,0.4,0.4s0.4-0.2,0.4-0.4v-1.9c1.1-0.1,1.7-0.8,1.7-1.7
		c0-1.1-0.9-1.5-1.7-1.8v-1.2c0.3,0.1,0.5,0.3,0.6,0.4c0.1,0.1,0.3,0.2,0.4,0.2c0.3,0,0.5-0.2,0.5-0.5c0-0.1,0-0.2-0.1-0.3
		c-0.3-0.5-0.8-0.8-1.5-0.9v-1.9c0-0.2-0.2-0.4-0.4-0.4s-0.4,0.2-0.4,0.4v1.9c-1,0.2-1.4,0.9-1.4,1.6c0,1,0.7,1.4,1.4,1.6v1.6
		c-0.3-0.1-0.5-0.3-0.7-0.5c-0.1-0.2-0.3-0.3-0.5-0.3c-0.3,0-0.5,0.2-0.5,0.5c0,0.1,0,0.2,0.1,0.3
		C672.5,518,673.1,518.4,673.9,518.5z M675.3,516.8c0,0.2,0,0.5-0.6,0.7v-1.3C675.1,516.3,675.3,516.5,675.3,516.8z M673.9,513.8
		v0.9c-0.2-0.1-0.3-0.2-0.3-0.4C673.5,514,673.7,513.8,673.9,513.8z"/>
	<path id="XMLID_2505_" fill="#FFFFFF" d="M684.3,507.8h-14.9c-0.2,0-0.4,0.2-0.4,0.4v19.9c0,0.2,0.2,0.4,0.4,0.4h14.9
		c0.2,0,0.4-0.2,0.4-0.4v-19.9C684.8,508,684.6,507.8,684.3,507.8z M683.9,527.8h-14v-19h14V527.8L683.9,527.8z"/>
	<path id="XMLID_2504_" fill="#FFFFFF" d="M677.6,512.5h4.6c0.2,0,0.4-0.2,0.4-0.4s-0.2-0.4-0.4-0.4h-4.6c-0.2,0-0.4,0.2-0.4,0.4
		C677.2,512.3,677.4,512.5,677.6,512.5z"/>
	<path id="XMLID_2503_" fill="#FFFFFF" d="M677.6,514.9h4.6c0.2,0,0.4-0.2,0.4-0.4s-0.2-0.4-0.4-0.4h-4.6c-0.2,0-0.4,0.2-0.4,0.4
		C677.2,514.7,677.4,514.9,677.6,514.9z"/>
	<path id="XMLID_2502_" fill="#FFFFFF" d="M677.6,517.4h4.6c0.2,0,0.4-0.2,0.4-0.4s-0.2-0.4-0.4-0.4h-4.6c-0.2,0-0.4,0.2-0.4,0.4
		C677.2,517.2,677.4,517.4,677.6,517.4z"/>
	<path id="XMLID_2501_" fill="#FFFFFF" d="M677.6,519.8h4.6c0.2,0,0.4-0.2,0.4-0.4s-0.2-0.4-0.4-0.4h-4.6c-0.2,0-0.4,0.2-0.4,0.4
		S677.4,519.8,677.6,519.8z"/>
	<path id="XMLID_2157_" fill="#FFFFFF" d="M671.6,522.1h10.6c0.2,0,0.4-0.2,0.4-0.4s-0.2-0.4-0.4-0.4h-10.6c-0.2,0-0.4,0.2-0.4,0.4
		S671.3,522.1,671.6,522.1z"/>
	<path id="XMLID_2156_" fill="#FFFFFF" d="M671.6,524.5h10.6c0.2,0,0.4-0.2,0.4-0.4s-0.2-0.4-0.4-0.4h-10.6c-0.2,0-0.4,0.2-0.4,0.4
		S671.3,524.5,671.6,524.5z"/>
</g>
</svg>
